grf_filtered
version=1
nRows=30
nColumns=28
inDegrees=no
endheader
time	ground_force_r_vx	ground_force_r_vy	ground_force_r_vz	ground_force_r_px	ground_force_r_py	ground_force_r_pz	ground_torque_r_x	ground_torque_r_y	ground_torque_r_z	ground_force_l_vx	ground_force_l_vy	ground_force_l_vz	ground_force_l_px	ground_force_l_py	ground_force_l_pz	ground_torque_l_x	ground_torque_l_y	ground_torque_l_z	pelvis_force_vx	pelvis_force_vy	pelvis_force_vz	pelvis_force_px	pelvis_force_py	pelvis_force_pz	pelvis_torque_x	pelvis_torque_y	pelvis_torque_z
1.975	6.797414746835443	49.760075	0.14872397890295286	0.2075568688354429	0.0	0.09210269390295345	-6.318024	-0.240673	-1.959324	-5.3267052531645565	50.354514	-1.743718021097047	0.20907259883544294	0.0	-0.25070853509704705	6.682245	0.135237	0.033603	0	565.2530730000001	0	0	0	0	0	0	0
1.976666666666667	6.483476746835443	49.758217	-0.7638340210970469	0.2027044498354429	0.0	0.09588880990295312	-6.132313	-0.483325	-1.776865	-4.696360253164556	49.742358	0.07994597890295285	0.20915181883544287	0.0	-0.24183746709704756	7.048433	0.139302	0.033775	0	565.2530730000001	0	0	0	0	0	0	0
1.978333333333333	6.792282746835443	47.317267	-0.7630420210970468	0.20182695983544297	0.0	0.05467855990295334	-7.779775	-0.499546	-1.499772	-4.713588253164557	49.133272	-1.446341021097047	0.20405804083544288	0.0	-0.25483323609704733	6.318796	-0.113003	-0.027402	0	565.2530730000001	0	0	0	0	0	0	0
1.98	6.795400746835442	49.149256	-0.15550802109704698	0.20003838783544292	0.0	0.09061288490295283	-6.31465	-0.606727	-2.05144	-5.938771253164557	46.692692	-1.739959021097047	0.20939900483544294	0.0	-0.23639406809704688	6.865339	0.13727	0.033689	0	565.2530730000001	0	0	0	0	0	0	0
1.981666666666667	6.469759746835443	49.145521	-2.288712021097047	0.20492096183544295	0.0	0.0795234889029528	-6.865871	-0.368284	-1.775595	-5.927441253164558	49.133339	-0.822478021097047	0.20434329283544295	0.0	-0.23624116409704676	7.234237	-0.102791	0.034063	0	565.2530730000001	0	0	0	0	0	0	0
1.983333333333333	6.481462746835444	49.147398	-1.0680660210970472	0.20254302983544292	0.0	0.09064803190295301	-6.316094	-0.484384	-2.234357	-5.022424253164557	48.523317	-1.748613021097047	0.20417951383544286	0.0	-0.2418784220970469	6.868107	-0.106956	-0.088179	0	565.2530730000001	0	0	0	0	0	0	0
1.9849999999999999	5.873872746835444	47.315445	-1.0594250210970468	0.19687599583544302	0.0	0.0702310859029529	-7.045457	-0.736233	-1.775887	-5.937311253164557	49.744449	-1.737446021097047	0.20436420783544296	0.0	-0.23798623909704641	7.234237	-0.102791	0.034063	0	565.2530730000001	0	0	0	0	0	0	0
1.9866666666666668	6.179226746835443	49.147416	-0.759978021097047	0.204975462835443	0.0	0.08315123490295306	-6.683048	-0.366249	-1.95897	-5.632446253164558	49.133954	-1.7413360210970468	0.20925150483544297	0.0	-0.23996341709704705	7.048404	0.139352	0.09481	0	565.2530730000001	0	0	0	0	0	0	0
1.9883333333333337	6.803984746835443	47.319144	0.457602978902953	0.20466646383544285	0.0	0.08166737990295303	-6.499814	-0.364633	-1.867689	-5.6256712531645565	49.133448	-1.131022021097047	0.20684947383544294	0.0	-0.2325223250970465	7.415977	0.021304	0.034048	0	565.2530730000001	0	0	0	0	0	0	0
1.9899999999999998	6.483476746835443	49.758217	-0.7638340210970469	0.2049465938354429	0.0	0.07378042990295253	-7.231655	-0.372214	-1.500396	-5.937603253164557	49.134097	-1.7379490210970472	0.204468036835443	0.0	-0.22500257409704716	7.783461	-0.096594	0.156391	0	565.2530730000001	0	0	0	0	0	0	0
1.9916666666666667	6.477433746835443	47.925759	-1.6765300210970469	0.20737642683544288	0.0	0.08735999790295335	-6.317751	-0.240952	-1.776219	-5.923762253164558	49.743437	-0.5168180210970466	0.20432248783544293	0.0	-0.24174490209704746	7.051202	-0.104924	-0.088093	0	565.2530730000001	0	0	0	0	0	0	0
1.9933333333333336	6.483476746835443	49.758217	-0.7638340210970469	0.20018000183544293	0.0	0.08855072490295335	-6.497337	-0.608902	-1.776511	-6.852489253164556	50.35523	-1.7267820210970468	0.206825431835443	0.0	-0.24341041909704675	7.049876	0.017088	-0.149229	0	565.2530730000001	0	0	0	0	0	0	0
1.9949999999999997	5.8810197468354435	50.369072	0.15657297890295307	0.20037136183544302	0.0	0.09007835590295343	-6.49761	-0.608623	-1.959616	-5.927733253164558	48.522987	-0.8229810210970472	0.2092698868354429	0.0	-0.24199483409704747	6.865398	0.137169	-0.088381	0	565.2530730000001	0	0	0	0	0	0	0
1.9966666666666666	5.871139746835443	49.146495	-1.0622140210970468	0.19747085283544286	0.0	0.07578916990295337	-7.045321	-0.736373	-1.684335	-6.544237253164557	49.744482	-1.425515021097047	0.20922890883544287	0.0	-0.24542213109704747	6.865369	0.137219	-0.027346	0	565.2530730000001	0	0	0	0	0	0	0
1.9983333333333335	6.178315746835443	49.757766	-0.7609080210970469	0.20258277583544293	0.0	0.08116539090295216	-6.864974	-0.49007	-1.958888	-6.245271253164557	50.965547	-2.038210021097047	0.20921261383544287	0.0	-0.2414994290970478	7.231732	0.140982	-0.393385	0	565.2530730000001	0	0	0	0	0	0	0
2.0000000000000004	4.960595746835443	49.756431	-0.44404102109704713	0.20027720283544292	0.0	0.08853031290295288	-6.497337	-0.608902	-1.776511	-5.011386253164558	50.353612	-0.831634021097047	0.20174007883544287	0.0	-0.25432146209704687	6.503332	-0.233184	-0.21032	0	565.2530730000001	0	0	0	0	0	0	0
2.0016666666666665	6.4852987468354435	48.537517	-0.7619750210970468	0.19730978083544293	0.0	0.08151031390295316	-6.67858	-0.733419	-1.318666	-6.2461472531645565	49.134494	-2.039718021097047	0.20929116283544302	0.0	-0.23994413509704682	7.048521	0.139151	-0.149331	0	565.2530730000001	0	0	0	0	0	0	0
2.0033333333333334	6.179226746835443	49.147416	-0.759978021097047	0.1949665898354429	0.0	0.0757934629029533	-7.044424	-0.858159	-1.867627	-6.853073253164558	49.134527	-1.727787021097047	0.2044031078354429	0.0	-0.23618266309704694	7.234296	-0.102892	-0.088007	0	565.2530730000001	0	0	0	0	0	0	0
2.0050000000000003	7.093607746835444	47.927599	-1.0720600210970468	0.19961936983544293	0.0	0.07975028090295311	-6.680024	-0.611076	-1.501583	-6.842036253164556	50.964822	-0.810808021097047	0.20437991483544293	0.0	-0.2487079080970469	6.868166	-0.107057	-0.210249	0	565.2530730000001	0	0	0	0	0	0	0
2.0066666666666664	5.258083746835442	50.976644	-1.059150021097047	0.20038719983544284	0.0	0.07373924890295314	-7.412821	-0.61768	-1.775158	-5.933047253164558	51.57525	-1.4307810210970469	0.20201577483544297	0.0	-0.24668530509704656	7.052615	-0.227087	-0.210062	0	565.2530730000001	0	0	0	0	0	0	0
2.0083333333333333	6.1722717468354436	47.925308	-1.6736030210970472	0.20219143683544294	0.0	0.07594423690295304	-6.864838	-0.490209	-1.867335	-6.544237253164557	49.744482	-1.425515021097047	0.20922890883544287	0.0	-0.24542213109704747	6.865369	0.137219	-0.027346	0	565.2530730000001	0	0	0	0	0	0	0
2.0100000000000002	5.866199746835443	48.535207	-1.671607021097047	0.19458145483544287	0.0	0.05518010690295316	-7.959361	-0.867495	-1.500064	-5.015065253164558	49.743513	-1.137294021097047	0.20176979683544294	0.0	-0.24535881409704707	6.869521	-0.22912	-0.210148	0	565.2530730000001	0	0	0	0	0	0	0
2.0116666666666663	5.875168746835444	50.368134	-0.4537500210970471	0.1978430218354429	0.0	0.07923150790295264	-7.045594	-0.736094	-1.86744	-5.3267052531645565	50.354514	-1.743718021097047	0.20430513283544294	0.0	-0.24338244409704668	7.051231	-0.104974	-0.149128	0	565.2530730000001	0	0	0	0	0	0	0
2.013333333333333	5.261919746835442	50.366763	-0.7530590210970471	0.20286938683544298	0.0	0.09374865790295228	-6.315137	-0.48536	-1.593489	-6.849978253164558	48.523923	-1.4231330210970468	0.20442474483544293	0.0	-0.2305796650970473	7.417361	-0.100809	-0.026886	0	565.2530730000001	0	0	0	0	0	0	0
2.015	6.183062746835443	48.537535	-0.4538870210970467	0.19988133783544293	0.0	0.08523943890295271	-6.4972	-0.609041	-1.684959	-5.320222253164557	49.743656	-1.133907021097047	0.1993762928354429	0.0	-0.24165103909704744	7.054028	-0.349251	-0.332031	0	565.2530730000001	0	0	0	0	0	0	0
2.016666666666667	6.179226746835443	49.147416	-0.759978021097047	0.204904009835443	0.0	0.07569816990295308	-7.048695	-0.370319	-1.592219	-6.2535052531645565	47.914297	-2.651037021097047	0.204322779835443	0.0	-0.23237519709704735	7.234237	-0.102791	0.034063	0	565.2530730000001	0	0	0	0	0	0	0
2.018333333333333	4.334733746835443	50.363533	-1.9649250210970468	0.19544630183544298	0.0	0.0720776539029524	-7.410071	-0.862228	-1.500876	-6.551012253164558	49.744988	-2.035828021097047	0.20677550483544294	0.0	-0.24535593909704723	6.86684	0.014956	-0.271386	0	565.2530730000001	0	0	0	0	0	0	0
2.02	4.954743746835442	49.755493	-1.0543640210970469	0.200171712835443	0.0	0.07752684390295261	-7.046491	-0.614308	-1.684147	-6.853657253164558	47.913824	-1.728792021097047	0.196677292835443	0.0	-0.23617289509704698	7.055208	-0.471012	0.034281	0	565.2530730000001	0	0	0	0	0	0	0
2.021666666666667	5.877901746835443	48.537084	-0.45096102109704717	0.1897303578354429	0.0	0.07401551790295358	-7.041673	-1.102706	-1.593345	-6.541434253164557	48.523527	-1.1213630210970469	0.19928965383544295	0.0	-0.2380902670970464	7.053941	-0.3491	-0.148926	0	565.2530730000001	0	0	0	0	0	0	0
2.023333333333333	5.5718297468354425	49.146983	-0.4489640210970469	0.19756164783544294	0.0	0.08320260690295278	-6.6794	-0.732582	-1.867981	-6.241884253164557	50.965295	-1.7330530210970472	0.21152771183544294	0.0	-0.24873020909704735	6.864072	0.259182	-0.149518	0	565.2530730000001	0	0	0	0	0	0	0
